<?xml version="1.0" standalone="no"?>
<!DOCTYPE svg PUBLIC "-//W3C//DTD SVG 20010904//EN"
 "http://www.w3.org/TR/2001/REC-SVG-20010904/DTD/svg10.dtd">
<svg version="1.0" xmlns="http://www.w3.org/2000/svg"
 width="240.000000pt" height="240.000000pt" viewBox="0 0 240.000000 240.000000"
 preserveAspectRatio="xMidYMid meet">
<metadata>
Created by potrace 1.11, written by Peter Selinger 2001-2013
</metadata>
<g transform="translate(0.000000,240.000000) scale(0.100000,-0.100000)"
fill="#000000" stroke="none">
<path d="M1085 2367 c-33 -19 -123 -66 -200 -106 -77 -41 -219 -115 -315 -166
-275 -146 -419 -222 -498 -262 l-72 -37 2 -265 3 -265 105 -56 c97 -51 208
-111 385 -205 39 -20 113 -60 165 -88 52 -27 113 -60 135 -72 114 -62 293
-155 298 -155 4 0 7 118 7 263 l0 263 -147 79 c-82 43 -161 86 -178 95 -16 9
-91 49 -165 88 -74 39 -173 91 -220 117 -47 25 -127 66 -177 92 -51 26 -89 51
-85 54 4 4 41 25 82 47 41 22 147 78 235 125 88 46 210 110 270 142 61 32 142
74 180 95 39 20 112 59 163 85 l93 49 57 -31 c31 -17 237 -126 457 -243 536
-285 515 -274 507 -281 -9 -8 -47 -29 -482 -257 -74 -39 -191 -101 -260 -137
-69 -36 -149 -78 -177 -92 l-53 -27 0 -269 c0 -214 3 -267 13 -260 6 6 75 43
152 83 77 40 172 89 210 110 39 21 201 106 360 190 160 84 307 162 328 173
l37 21 0 260 0 261 -30 17 c-17 10 -83 45 -148 79 -64 34 -139 74 -167 89 -27
15 -90 49 -140 75 -49 26 -118 63 -152 82 -35 18 -91 48 -125 66 -260 139
-387 207 -391 207 -1 0 -29 -15 -62 -33z"/>
<path d="M1045 2156 c-92 -29 -115 -60 -115 -158 0 -72 14 -99 63 -125 110
-59 317 -36 359 40 18 33 19 147 0 179 -25 44 -95 71 -187 74 -44 1 -98 -3
-120 -10z m195 -74 c14 -6 32 -17 39 -26 43 -51 -123 -94 -220 -58 -14 6 -31
17 -38 26 -43 51 123 95 219 58z"/>
<path d="M586 1926 c-28 -8 -61 -27 -79 -45 -28 -28 -31 -37 -33 -98 -1 -83
14 -117 64 -141 52 -26 87 -34 160 -33 86 0 135 16 178 56 l36 34 -3 80 c-4
69 -7 83 -28 103 -55 50 -195 71 -295 44z m204 -76 c50 -21 49 -60 -2 -81 -77
-32 -228 -5 -228 41 0 49 147 74 230 40z"/>
<path d="M1515 1931 c-94 -24 -128 -64 -130 -153 -2 -85 16 -114 84 -145 45
-20 68 -24 140 -22 94 2 141 17 184 57 25 24 27 32 27 102 0 88 -11 110 -72
141 -44 22 -179 34 -233 20z m187 -82 c79 -42 27 -91 -97 -92 -144 -2 -189 75
-60 103 43 10 130 3 157 -11z"/>
<path d="M1073 1689 c-55 -10 -96 -33 -122 -65 -17 -21 -21 -41 -21 -95 0 -58
4 -72 25 -98 72 -85 307 -89 386 -5 20 21 23 35 24 103 0 90 -12 111 -81 142
-46 21 -150 30 -211 18z m185 -88 c65 -35 -2 -91 -110 -91 -32 0 -68 8 -94 20
-63 31 -51 64 31 85 50 12 137 5 173 -14z"/>
<path d="M0 858 l0 -293 153 -77 c83 -43 233 -120 332 -171 99 -51 278 -144
398 -205 l217 -112 0 284 0 284 -107 58 c-60 31 -130 69 -158 84 -27 15 -88
48 -135 73 -47 24 -221 117 -387 206 -166 88 -304 161 -307 161 -3 0 -6 -132
-6 -292z"/>
<path d="M2245 1121 c-27 -15 -108 -58 -180 -96 -71 -37 -157 -82 -190 -100
-33 -18 -118 -63 -190 -100 -71 -37 -157 -82 -190 -100 -33 -18 -113 -60 -177
-94 l-118 -62 0 -285 0 -285 218 112 c119 62 303 157 407 211 105 54 254 131
333 171 l142 72 0 292 c0 161 -1 293 -2 292 -2 0 -25 -13 -53 -28z"/>
</g>
</svg>
